<mxfile host="app.diagrams.net" modified="2023-06-12T04:31:19.070Z" agent="Mozilla/5.0 (Windows NT 10.0; Win64; x64; rv:109.0) Gecko/20100101 Firefox/114.0" etag="4WAtnXKkFu4OEpDvT9hj" version="21.3.8" type="device">
  <diagram name="PÃ¡gina-1" id="EJl1tC74jtopaxx9l2ul">
    <mxGraphModel dx="2084" dy="671" grid="1" gridSize="10" guides="1" tooltips="1" connect="1" arrows="1" fold="1" page="1" pageScale="1" pageWidth="827" pageHeight="1169" math="0" shadow="0">
      <root>
        <mxCell id="0" />
        <mxCell id="1" parent="0" />
        <mxCell id="cjWLQR7C9Qx7QQM9_jkd-96" value="&lt;div&gt;Muestra&lt;/div&gt;&lt;div&gt;&lt;br&gt;&lt;/div&gt;" style="swimlane;fontStyle=1;align=center;verticalAlign=top;childLayout=stackLayout;horizontal=1;startSize=30;horizontalStack=0;resizeParent=1;resizeParentMax=0;resizeLast=0;collapsible=1;marginBottom=0;whiteSpace=wrap;html=1;fillColor=#dae8fc;strokeColor=#6c8ebf;" parent="1" vertex="1">
          <mxGeometry x="-180" y="585" width="210" height="310" as="geometry" />
        </mxCell>
        <mxCell id="cjWLQR7C9Qx7QQM9_jkd-97" value="&lt;div&gt;-ubicacion&lt;/div&gt;&lt;div&gt;-usuario&lt;/div&gt;&lt;div&gt;-tipoInsecto&lt;/div&gt;&lt;div&gt;-fechaCreacion&lt;/div&gt;" style="text;strokeColor=none;fillColor=none;align=left;verticalAlign=top;spacingLeft=4;spacingRight=4;overflow=hidden;rotatable=0;points=[[0,0.5],[1,0.5]];portConstraint=eastwest;whiteSpace=wrap;html=1;" parent="cjWLQR7C9Qx7QQM9_jkd-96" vertex="1">
          <mxGeometry y="30" width="210" height="80" as="geometry" />
        </mxCell>
        <mxCell id="cjWLQR7C9Qx7QQM9_jkd-98" value="" style="line;strokeWidth=1;fillColor=none;align=left;verticalAlign=middle;spacingTop=-1;spacingLeft=3;spacingRight=3;rotatable=0;labelPosition=right;points=[];portConstraint=eastwest;strokeColor=inherit;" parent="cjWLQR7C9Qx7QQM9_jkd-96" vertex="1">
          <mxGeometry y="110" width="210" height="8" as="geometry" />
        </mxCell>
        <mxCell id="cjWLQR7C9Qx7QQM9_jkd-99" value="&lt;div&gt;+getUbicacion():Ubicacion&lt;/div&gt;&lt;div&gt;+getUsuario():Usuario&lt;/div&gt;&lt;div&gt;+getFechaCreacion():LocalDate&lt;/div&gt;&lt;div&gt;+getTipoInsecto():OpinionImagen&lt;br&gt;&lt;/div&gt;&lt;div&gt;+getOpiniones():ArrayList&amp;lt;Opinion&amp;gt;&lt;/div&gt;&lt;div&gt;+cambiarEstado():void&lt;/div&gt;&lt;div&gt;+agregarOpinion():void&lt;/div&gt;&lt;div&gt;+opinionDeUsuario():void&lt;/div&gt;&lt;div&gt;+esVerificada():boolean&lt;/div&gt;&lt;div&gt;+opinionesExpertos():ArrayList&amp;lt;Opinion&amp;gt;&lt;/div&gt;&lt;div&gt;+actualizarOpinion():void&lt;/div&gt;&lt;div&gt;+actualizarOpinionActual():void&lt;/div&gt;&lt;div&gt;+new(ubicacion, usuario, opinion)&lt;br&gt;&lt;/div&gt;" style="text;strokeColor=none;fillColor=none;align=left;verticalAlign=top;spacingLeft=4;spacingRight=4;overflow=hidden;rotatable=0;points=[[0,0.5],[1,0.5]];portConstraint=eastwest;whiteSpace=wrap;html=1;" parent="cjWLQR7C9Qx7QQM9_jkd-96" vertex="1">
          <mxGeometry y="118" width="210" height="192" as="geometry" />
        </mxCell>
        <mxCell id="cjWLQR7C9Qx7QQM9_jkd-109" value="Ubicacion" style="swimlane;fontStyle=1;align=center;verticalAlign=top;childLayout=stackLayout;horizontal=1;startSize=26;horizontalStack=0;resizeParent=1;resizeParentMax=0;resizeLast=0;collapsible=1;marginBottom=0;whiteSpace=wrap;html=1;" parent="1" vertex="1">
          <mxGeometry x="660" y="1180" width="360" height="164" as="geometry" />
        </mxCell>
        <mxCell id="cjWLQR7C9Qx7QQM9_jkd-110" value="+ latitud: int" style="text;strokeColor=none;fillColor=none;align=left;verticalAlign=top;spacingLeft=4;spacingRight=4;overflow=hidden;rotatable=0;points=[[0,0.5],[1,0.5]];portConstraint=eastwest;whiteSpace=wrap;html=1;" parent="cjWLQR7C9Qx7QQM9_jkd-109" vertex="1">
          <mxGeometry y="26" width="360" height="26" as="geometry" />
        </mxCell>
        <mxCell id="cjWLQR7C9Qx7QQM9_jkd-113" value="+ longitud: int&amp;nbsp;" style="text;strokeColor=none;fillColor=none;align=left;verticalAlign=top;spacingLeft=4;spacingRight=4;overflow=hidden;rotatable=0;points=[[0,0.5],[1,0.5]];portConstraint=eastwest;whiteSpace=wrap;html=1;" parent="cjWLQR7C9Qx7QQM9_jkd-109" vertex="1">
          <mxGeometry y="52" width="360" height="26" as="geometry" />
        </mxCell>
        <mxCell id="cjWLQR7C9Qx7QQM9_jkd-111" value="" style="line;strokeWidth=1;fillColor=none;align=left;verticalAlign=middle;spacingTop=-1;spacingLeft=3;spacingRight=3;rotatable=0;labelPosition=right;points=[];portConstraint=eastwest;strokeColor=inherit;" parent="cjWLQR7C9Qx7QQM9_jkd-109" vertex="1">
          <mxGeometry y="78" width="360" height="8" as="geometry" />
        </mxCell>
        <mxCell id="cjWLQR7C9Qx7QQM9_jkd-112" value="+ distancia(ubicacion1,ubicacion2) type" style="text;strokeColor=none;fillColor=none;align=left;verticalAlign=top;spacingLeft=4;spacingRight=4;overflow=hidden;rotatable=0;points=[[0,0.5],[1,0.5]];portConstraint=eastwest;whiteSpace=wrap;html=1;" parent="cjWLQR7C9Qx7QQM9_jkd-109" vertex="1">
          <mxGeometry y="86" width="360" height="26" as="geometry" />
        </mxCell>
        <mxCell id="cjWLQR7C9Qx7QQM9_jkd-114" value="+ ubicacionesMasCercanas (Array&amp;lt;Ubicacion): type" style="text;strokeColor=none;fillColor=none;align=left;verticalAlign=top;spacingLeft=4;spacingRight=4;overflow=hidden;rotatable=0;points=[[0,0.5],[1,0.5]];portConstraint=eastwest;whiteSpace=wrap;html=1;" parent="cjWLQR7C9Qx7QQM9_jkd-109" vertex="1">
          <mxGeometry y="112" width="360" height="26" as="geometry" />
        </mxCell>
        <mxCell id="cjWLQR7C9Qx7QQM9_jkd-115" value="+ todasLasMuestrasCercanas(Muestra): type" style="text;strokeColor=none;fillColor=none;align=left;verticalAlign=top;spacingLeft=4;spacingRight=4;overflow=hidden;rotatable=0;points=[[0,0.5],[1,0.5]];portConstraint=eastwest;whiteSpace=wrap;html=1;" parent="cjWLQR7C9Qx7QQM9_jkd-109" vertex="1">
          <mxGeometry y="138" width="360" height="26" as="geometry" />
        </mxCell>
        <mxCell id="cjWLQR7C9Qx7QQM9_jkd-116" value="" style="text;strokeColor=none;fillColor=none;align=left;verticalAlign=middle;spacingTop=-1;spacingLeft=4;spacingRight=4;rotatable=0;labelPosition=right;points=[];portConstraint=eastwest;" parent="1" vertex="1">
          <mxGeometry x="630" y="906" width="20" height="14" as="geometry" />
        </mxCell>
        <mxCell id="cjWLQR7C9Qx7QQM9_jkd-117" value="Organizacion" style="swimlane;fontStyle=1;align=center;verticalAlign=top;childLayout=stackLayout;horizontal=1;startSize=26;horizontalStack=0;resizeParent=1;resizeParentMax=0;resizeLast=0;collapsible=1;marginBottom=0;whiteSpace=wrap;html=1;" parent="1" vertex="1">
          <mxGeometry x="660" y="880" width="270" height="190" as="geometry" />
        </mxCell>
        <mxCell id="cjWLQR7C9Qx7QQM9_jkd-118" value="+ ubicacion : ubicacion" style="text;strokeColor=none;fillColor=none;align=left;verticalAlign=top;spacingLeft=4;spacingRight=4;overflow=hidden;rotatable=0;points=[[0,0.5],[1,0.5]];portConstraint=eastwest;whiteSpace=wrap;html=1;" parent="cjWLQR7C9Qx7QQM9_jkd-117" vertex="1">
          <mxGeometry y="26" width="270" height="26" as="geometry" />
        </mxCell>
        <mxCell id="cjWLQR7C9Qx7QQM9_jkd-121" value="+ tipoDeOrganizacion: String" style="text;strokeColor=none;fillColor=none;align=left;verticalAlign=top;spacingLeft=4;spacingRight=4;overflow=hidden;rotatable=0;points=[[0,0.5],[1,0.5]];portConstraint=eastwest;whiteSpace=wrap;html=1;" parent="cjWLQR7C9Qx7QQM9_jkd-117" vertex="1">
          <mxGeometry y="52" width="270" height="26" as="geometry" />
        </mxCell>
        <mxCell id="cjWLQR7C9Qx7QQM9_jkd-122" value="+ Personas: persona" style="text;strokeColor=none;fillColor=none;align=left;verticalAlign=top;spacingLeft=4;spacingRight=4;overflow=hidden;rotatable=0;points=[[0,0.5],[1,0.5]];portConstraint=eastwest;whiteSpace=wrap;html=1;" parent="cjWLQR7C9Qx7QQM9_jkd-117" vertex="1">
          <mxGeometry y="78" width="270" height="26" as="geometry" />
        </mxCell>
        <mxCell id="cjWLQR7C9Qx7QQM9_jkd-124" value="+ zonaRegistradas: ArrayList&amp;lt;Zona&amp;gt;" style="text;strokeColor=none;fillColor=none;align=left;verticalAlign=top;spacingLeft=4;spacingRight=4;overflow=hidden;rotatable=0;points=[[0,0.5],[1,0.5]];portConstraint=eastwest;whiteSpace=wrap;html=1;" parent="cjWLQR7C9Qx7QQM9_jkd-117" vertex="1">
          <mxGeometry y="104" width="270" height="26" as="geometry" />
        </mxCell>
        <mxCell id="cjWLQR7C9Qx7QQM9_jkd-119" value="" style="line;strokeWidth=1;fillColor=none;align=left;verticalAlign=middle;spacingTop=-1;spacingLeft=3;spacingRight=3;rotatable=0;labelPosition=right;points=[];portConstraint=eastwest;strokeColor=inherit;" parent="cjWLQR7C9Qx7QQM9_jkd-117" vertex="1">
          <mxGeometry y="130" width="270" height="8" as="geometry" />
        </mxCell>
        <mxCell id="cjWLQR7C9Qx7QQM9_jkd-123" value="+ suscribirse(Zona): type" style="text;strokeColor=none;fillColor=none;align=left;verticalAlign=top;spacingLeft=4;spacingRight=4;overflow=hidden;rotatable=0;points=[[0,0.5],[1,0.5]];portConstraint=eastwest;whiteSpace=wrap;html=1;" parent="cjWLQR7C9Qx7QQM9_jkd-117" vertex="1">
          <mxGeometry y="138" width="270" height="26" as="geometry" />
        </mxCell>
        <mxCell id="cjWLQR7C9Qx7QQM9_jkd-120" value="+ desuscribirse (Zona)): type" style="text;strokeColor=none;fillColor=none;align=left;verticalAlign=top;spacingLeft=4;spacingRight=4;overflow=hidden;rotatable=0;points=[[0,0.5],[1,0.5]];portConstraint=eastwest;whiteSpace=wrap;html=1;" parent="cjWLQR7C9Qx7QQM9_jkd-117" vertex="1">
          <mxGeometry y="164" width="270" height="26" as="geometry" />
        </mxCell>
        <mxCell id="cjWLQR7C9Qx7QQM9_jkd-125" value="Use" style="endArrow=open;endSize=12;dashed=1;html=1;rounded=0;exitX=1;exitY=0;exitDx=0;exitDy=0;" parent="1" edge="1">
          <mxGeometry width="160" relative="1" as="geometry">
            <mxPoint x="930" y="930" as="sourcePoint" />
            <mxPoint x="1070" y="930" as="targetPoint" />
          </mxGeometry>
        </mxCell>
        <mxCell id="cjWLQR7C9Qx7QQM9_jkd-127" value="&lt;p style=&quot;margin:0px;margin-top:4px;text-align:center;&quot;&gt;&lt;i&gt;&amp;lt;&amp;lt;Interface&amp;gt;&amp;gt;&lt;/i&gt;&lt;/p&gt;&lt;p style=&quot;margin:0px;margin-top:4px;text-align:center;&quot;&gt;&lt;b&gt;FuncionalidadExterna&lt;/b&gt;&lt;br&gt;&lt;/p&gt;&lt;hr size=&quot;1&quot;&gt;&lt;p style=&quot;margin:0px;margin-left:4px;&quot;&gt;+ field1: Type&lt;br&gt;+ field2: Type&lt;/p&gt;&lt;hr size=&quot;1&quot;&gt;&lt;p style=&quot;margin:0px;margin-left:4px;&quot;&gt;+ nuevoEvento(Organizacion, zonaCobertura, muestra)&lt;br&gt;&lt;/p&gt;" style="verticalAlign=top;align=left;overflow=fill;fontSize=12;fontFamily=Helvetica;html=1;whiteSpace=wrap;" parent="1" vertex="1">
          <mxGeometry x="1070" y="870" width="190" height="140" as="geometry" />
        </mxCell>
        <mxCell id="cjWLQR7C9Qx7QQM9_jkd-128" value="ZonaDeCobertura" style="swimlane;fontStyle=1;align=center;verticalAlign=top;childLayout=stackLayout;horizontal=1;startSize=26;horizontalStack=0;resizeParent=1;resizeParentMax=0;resizeLast=0;collapsible=1;marginBottom=0;whiteSpace=wrap;html=1;" parent="1" vertex="1">
          <mxGeometry x="1180" y="1200" width="240" height="164" as="geometry" />
        </mxCell>
        <mxCell id="cjWLQR7C9Qx7QQM9_jkd-136" value="+ nombre: String" style="text;strokeColor=none;fillColor=none;align=left;verticalAlign=top;spacingLeft=4;spacingRight=4;overflow=hidden;rotatable=0;points=[[0,0.5],[1,0.5]];portConstraint=eastwest;whiteSpace=wrap;html=1;" parent="cjWLQR7C9Qx7QQM9_jkd-128" vertex="1">
          <mxGeometry y="26" width="240" height="26" as="geometry" />
        </mxCell>
        <mxCell id="cjWLQR7C9Qx7QQM9_jkd-129" value="+ epicentro : int&amp;nbsp;" style="text;strokeColor=none;fillColor=none;align=left;verticalAlign=top;spacingLeft=4;spacingRight=4;overflow=hidden;rotatable=0;points=[[0,0.5],[1,0.5]];portConstraint=eastwest;whiteSpace=wrap;html=1;" parent="cjWLQR7C9Qx7QQM9_jkd-128" vertex="1">
          <mxGeometry y="52" width="240" height="26" as="geometry" />
        </mxCell>
        <mxCell id="cjWLQR7C9Qx7QQM9_jkd-137" value="+ distancia : int" style="text;strokeColor=none;fillColor=none;align=left;verticalAlign=top;spacingLeft=4;spacingRight=4;overflow=hidden;rotatable=0;points=[[0,0.5],[1,0.5]];portConstraint=eastwest;whiteSpace=wrap;html=1;" parent="cjWLQR7C9Qx7QQM9_jkd-128" vertex="1">
          <mxGeometry y="78" width="240" height="26" as="geometry" />
        </mxCell>
        <mxCell id="cjWLQR7C9Qx7QQM9_jkd-138" value="+ muestras: ArrayList&amp;lt;Muestra&amp;gt;" style="text;strokeColor=none;fillColor=none;align=left;verticalAlign=top;spacingLeft=4;spacingRight=4;overflow=hidden;rotatable=0;points=[[0,0.5],[1,0.5]];portConstraint=eastwest;whiteSpace=wrap;html=1;" parent="cjWLQR7C9Qx7QQM9_jkd-128" vertex="1">
          <mxGeometry y="104" width="240" height="26" as="geometry" />
        </mxCell>
        <mxCell id="cjWLQR7C9Qx7QQM9_jkd-130" value="" style="line;strokeWidth=1;fillColor=none;align=left;verticalAlign=middle;spacingTop=-1;spacingLeft=3;spacingRight=3;rotatable=0;labelPosition=right;points=[];portConstraint=eastwest;strokeColor=inherit;" parent="cjWLQR7C9Qx7QQM9_jkd-128" vertex="1">
          <mxGeometry y="130" width="240" height="8" as="geometry" />
        </mxCell>
        <mxCell id="cjWLQR7C9Qx7QQM9_jkd-131" value="+ zonasSolapadas(): type" style="text;strokeColor=none;fillColor=none;align=left;verticalAlign=top;spacingLeft=4;spacingRight=4;overflow=hidden;rotatable=0;points=[[0,0.5],[1,0.5]];portConstraint=eastwest;whiteSpace=wrap;html=1;" parent="cjWLQR7C9Qx7QQM9_jkd-128" vertex="1">
          <mxGeometry y="138" width="240" height="26" as="geometry" />
        </mxCell>
        <mxCell id="cjWLQR7C9Qx7QQM9_jkd-161" style="edgeStyle=orthogonalEdgeStyle;rounded=0;orthogonalLoop=1;jettySize=auto;html=1;exitX=0.75;exitY=0;exitDx=0;exitDy=0;entryX=0;entryY=0.5;entryDx=0;entryDy=0;" parent="1" source="cjWLQR7C9Qx7QQM9_jkd-139" target="cjWLQR7C9Qx7QQM9_jkd-118" edge="1">
          <mxGeometry relative="1" as="geometry" />
        </mxCell>
        <mxCell id="cjWLQR7C9Qx7QQM9_jkd-139" value="Sistema" style="swimlane;fontStyle=1;align=center;verticalAlign=top;childLayout=stackLayout;horizontal=1;startSize=26;horizontalStack=0;resizeParent=1;resizeParentMax=0;resizeLast=0;collapsible=1;marginBottom=0;whiteSpace=wrap;html=1;" parent="1" vertex="1">
          <mxGeometry x="180" y="1030" width="320" height="138" as="geometry" />
        </mxCell>
        <mxCell id="cjWLQR7C9Qx7QQM9_jkd-140" value="+ muestas: ArrayList&amp;lt;Muestra&amp;gt;" style="text;strokeColor=none;fillColor=none;align=left;verticalAlign=top;spacingLeft=4;spacingRight=4;overflow=hidden;rotatable=0;points=[[0,0.5],[1,0.5]];portConstraint=eastwest;whiteSpace=wrap;html=1;" parent="cjWLQR7C9Qx7QQM9_jkd-139" vertex="1">
          <mxGeometry y="26" width="320" height="26" as="geometry" />
        </mxCell>
        <mxCell id="cjWLQR7C9Qx7QQM9_jkd-144" value="+ zonas: ArrayList&amp;lt;ZonaDeCobetura&amp;gt;" style="text;strokeColor=none;fillColor=none;align=left;verticalAlign=top;spacingLeft=4;spacingRight=4;overflow=hidden;rotatable=0;points=[[0,0.5],[1,0.5]];portConstraint=eastwest;whiteSpace=wrap;html=1;" parent="cjWLQR7C9Qx7QQM9_jkd-139" vertex="1">
          <mxGeometry y="52" width="320" height="26" as="geometry" />
        </mxCell>
        <mxCell id="cjWLQR7C9Qx7QQM9_jkd-145" value="+ organizaciones: ArrayList&amp;lt;Organizacion&amp;gt;" style="text;strokeColor=none;fillColor=none;align=left;verticalAlign=top;spacingLeft=4;spacingRight=4;overflow=hidden;rotatable=0;points=[[0,0.5],[1,0.5]];portConstraint=eastwest;whiteSpace=wrap;html=1;" parent="cjWLQR7C9Qx7QQM9_jkd-139" vertex="1">
          <mxGeometry y="78" width="320" height="26" as="geometry" />
        </mxCell>
        <mxCell id="cjWLQR7C9Qx7QQM9_jkd-141" value="" style="line;strokeWidth=1;fillColor=none;align=left;verticalAlign=middle;spacingTop=-1;spacingLeft=3;spacingRight=3;rotatable=0;labelPosition=right;points=[];portConstraint=eastwest;strokeColor=inherit;" parent="cjWLQR7C9Qx7QQM9_jkd-139" vertex="1">
          <mxGeometry y="104" width="320" height="8" as="geometry" />
        </mxCell>
        <mxCell id="cjWLQR7C9Qx7QQM9_jkd-142" value="+ method(type): type" style="text;strokeColor=none;fillColor=none;align=left;verticalAlign=top;spacingLeft=4;spacingRight=4;overflow=hidden;rotatable=0;points=[[0,0.5],[1,0.5]];portConstraint=eastwest;whiteSpace=wrap;html=1;" parent="cjWLQR7C9Qx7QQM9_jkd-139" vertex="1">
          <mxGeometry y="112" width="320" height="26" as="geometry" />
        </mxCell>
        <mxCell id="cjWLQR7C9Qx7QQM9_jkd-146" value="Usuario" style="swimlane;fontStyle=1;align=center;verticalAlign=top;childLayout=stackLayout;horizontal=1;startSize=26;horizontalStack=0;resizeParent=1;resizeParentMax=0;resizeLast=0;collapsible=1;marginBottom=0;whiteSpace=wrap;html=1;fillColor=#dae8fc;strokeColor=#6c8ebf;" parent="1" vertex="1">
          <mxGeometry x="-230" y="1081" width="200" height="200" as="geometry" />
        </mxCell>
        <mxCell id="cjWLQR7C9Qx7QQM9_jkd-147" value="&lt;div&gt;-id&lt;/div&gt;&lt;div&gt;-username&lt;/div&gt;&lt;div&gt;&lt;br&gt;&lt;/div&gt;" style="text;strokeColor=none;fillColor=none;align=left;verticalAlign=top;spacingLeft=4;spacingRight=4;overflow=hidden;rotatable=0;points=[[0,0.5],[1,0.5]];portConstraint=eastwest;whiteSpace=wrap;html=1;" parent="cjWLQR7C9Qx7QQM9_jkd-146" vertex="1">
          <mxGeometry y="26" width="200" height="34" as="geometry" />
        </mxCell>
        <mxCell id="cjWLQR7C9Qx7QQM9_jkd-148" value="" style="line;strokeWidth=1;fillColor=none;align=left;verticalAlign=middle;spacingTop=-1;spacingLeft=3;spacingRight=3;rotatable=0;labelPosition=right;points=[];portConstraint=eastwest;strokeColor=inherit;" parent="cjWLQR7C9Qx7QQM9_jkd-146" vertex="1">
          <mxGeometry y="60" width="200" height="8" as="geometry" />
        </mxCell>
        <mxCell id="cjWLQR7C9Qx7QQM9_jkd-149" value="&lt;div&gt;+ darOpinion(muestra): void&lt;/div&gt;&lt;div&gt;+getState():EstadoUsuario&lt;/div&gt;" style="text;strokeColor=none;fillColor=none;align=left;verticalAlign=top;spacingLeft=4;spacingRight=4;overflow=hidden;rotatable=0;points=[[0,0.5],[1,0.5]];portConstraint=eastwest;whiteSpace=wrap;html=1;" parent="cjWLQR7C9Qx7QQM9_jkd-146" vertex="1">
          <mxGeometry y="68" width="200" height="42" as="geometry" />
        </mxCell>
        <mxCell id="cjWLQR7C9Qx7QQM9_jkd-151" value="&lt;div&gt;+ enviarMuestra(muestra): void&lt;/div&gt;&lt;div&gt;+cambiarEstado(state):void&lt;/div&gt;&lt;div&gt;+acutalizarEstado():void&lt;/div&gt;&lt;div&gt;+esExperto():boolean&lt;/div&gt;&lt;div&gt;+new(id, username):void&lt;br&gt;&lt;/div&gt;&lt;div&gt;&lt;br&gt;&lt;/div&gt;" style="text;strokeColor=none;fillColor=none;align=left;verticalAlign=top;spacingLeft=4;spacingRight=4;overflow=hidden;rotatable=0;points=[[0,0.5],[1,0.5]];portConstraint=eastwest;whiteSpace=wrap;html=1;" parent="cjWLQR7C9Qx7QQM9_jkd-146" vertex="1">
          <mxGeometry y="110" width="200" height="90" as="geometry" />
        </mxCell>
        <mxCell id="cjWLQR7C9Qx7QQM9_jkd-155" style="edgeStyle=orthogonalEdgeStyle;rounded=0;orthogonalLoop=1;jettySize=auto;html=1;exitX=0;exitY=0.5;exitDx=0;exitDy=0;entryX=0.104;entryY=-0.014;entryDx=0;entryDy=0;entryPerimeter=0;" parent="1" source="cjWLQR7C9Qx7QQM9_jkd-122" target="cjWLQR7C9Qx7QQM9_jkd-109" edge="1">
          <mxGeometry relative="1" as="geometry">
            <Array as="points">
              <mxPoint x="640" y="971" />
              <mxPoint x="640" y="1082" />
              <mxPoint x="620" y="1082" />
              <mxPoint x="620" y="1178" />
            </Array>
          </mxGeometry>
        </mxCell>
        <mxCell id="cjWLQR7C9Qx7QQM9_jkd-157" style="edgeStyle=orthogonalEdgeStyle;rounded=0;orthogonalLoop=1;jettySize=auto;html=1;exitX=1;exitY=0.5;exitDx=0;exitDy=0;entryX=0;entryY=0.5;entryDx=0;entryDy=0;" parent="1" source="cjWLQR7C9Qx7QQM9_jkd-113" target="cjWLQR7C9Qx7QQM9_jkd-136" edge="1">
          <mxGeometry relative="1" as="geometry" />
        </mxCell>
        <mxCell id="cjWLQR7C9Qx7QQM9_jkd-158" style="edgeStyle=orthogonalEdgeStyle;rounded=0;orthogonalLoop=1;jettySize=auto;html=1;exitX=1;exitY=0.5;exitDx=0;exitDy=0;entryX=0.311;entryY=1.016;entryDx=0;entryDy=0;entryPerimeter=0;" parent="1" source="cjWLQR7C9Qx7QQM9_jkd-145" target="cjWLQR7C9Qx7QQM9_jkd-131" edge="1">
          <mxGeometry relative="1" as="geometry">
            <Array as="points">
              <mxPoint x="550" y="1147" />
              <mxPoint x="550" y="1410" />
              <mxPoint x="1255" y="1410" />
            </Array>
          </mxGeometry>
        </mxCell>
        <mxCell id="cjWLQR7C9Qx7QQM9_jkd-162" value="observer?" style="text;html=1;align=center;verticalAlign=middle;resizable=0;points=[];autosize=1;strokeColor=none;fillColor=none;" parent="1" vertex="1">
          <mxGeometry x="700" y="828" width="80" height="30" as="geometry" />
        </mxCell>
        <mxCell id="cjWLQR7C9Qx7QQM9_jkd-165" value="UsuarioExperto" style="swimlane;fontStyle=1;align=center;verticalAlign=top;childLayout=stackLayout;horizontal=1;startSize=26;horizontalStack=0;resizeParent=1;resizeParentMax=0;resizeLast=0;collapsible=1;marginBottom=0;whiteSpace=wrap;html=1;fillColor=#dae8fc;strokeColor=#6c8ebf;" parent="1" vertex="1">
          <mxGeometry x="40" y="1711" width="160" height="110" as="geometry" />
        </mxCell>
        <mxCell id="cjWLQR7C9Qx7QQM9_jkd-167" value="" style="line;strokeWidth=1;fillColor=none;align=left;verticalAlign=middle;spacingTop=-1;spacingLeft=3;spacingRight=3;rotatable=0;labelPosition=right;points=[];portConstraint=eastwest;strokeColor=inherit;" parent="cjWLQR7C9Qx7QQM9_jkd-165" vertex="1">
          <mxGeometry y="26" width="160" height="8" as="geometry" />
        </mxCell>
        <mxCell id="cjWLQR7C9Qx7QQM9_jkd-168" value="&lt;div&gt;+setState():void&lt;/div&gt;&lt;div&gt;+actualizarEstado():void&lt;/div&gt;&lt;div&gt;+esExperto():boolean&lt;/div&gt;&lt;div&gt;+new(user):void&lt;br&gt;&lt;/div&gt;" style="text;strokeColor=none;fillColor=none;align=left;verticalAlign=top;spacingLeft=4;spacingRight=4;overflow=hidden;rotatable=0;points=[[0,0.5],[1,0.5]];portConstraint=eastwest;whiteSpace=wrap;html=1;" parent="cjWLQR7C9Qx7QQM9_jkd-165" vertex="1">
          <mxGeometry y="34" width="160" height="76" as="geometry" />
        </mxCell>
        <mxCell id="cjWLQR7C9Qx7QQM9_jkd-169" value="UsuarioBasico" style="swimlane;fontStyle=1;align=center;verticalAlign=top;childLayout=stackLayout;horizontal=1;startSize=26;horizontalStack=0;resizeParent=1;resizeParentMax=0;resizeLast=0;collapsible=1;marginBottom=0;whiteSpace=wrap;html=1;fillColor=#dae8fc;strokeColor=#6c8ebf;" parent="1" vertex="1">
          <mxGeometry x="-370" y="1711" width="160" height="110" as="geometry" />
        </mxCell>
        <mxCell id="cjWLQR7C9Qx7QQM9_jkd-171" value="" style="line;strokeWidth=1;fillColor=none;align=left;verticalAlign=middle;spacingTop=-1;spacingLeft=3;spacingRight=3;rotatable=0;labelPosition=right;points=[];portConstraint=eastwest;strokeColor=inherit;" parent="cjWLQR7C9Qx7QQM9_jkd-169" vertex="1">
          <mxGeometry y="26" width="160" height="8" as="geometry" />
        </mxCell>
        <mxCell id="cjWLQR7C9Qx7QQM9_jkd-172" value="&lt;div&gt;+setState():void&lt;/div&gt;&lt;div&gt;+actualizarEstado():void&lt;/div&gt;&lt;div&gt;+esExperto():boolean&lt;/div&gt;&lt;div&gt;+new(user):void&lt;br&gt;&lt;/div&gt;" style="text;strokeColor=none;fillColor=none;align=left;verticalAlign=top;spacingLeft=4;spacingRight=4;overflow=hidden;rotatable=0;points=[[0,0.5],[1,0.5]];portConstraint=eastwest;whiteSpace=wrap;html=1;" parent="cjWLQR7C9Qx7QQM9_jkd-169" vertex="1">
          <mxGeometry y="34" width="160" height="76" as="geometry" />
        </mxCell>
        <mxCell id="cjWLQR7C9Qx7QQM9_jkd-179" value="UsuarioEspecialista" style="swimlane;fontStyle=1;align=center;verticalAlign=top;childLayout=stackLayout;horizontal=1;startSize=26;horizontalStack=0;resizeParent=1;resizeParentMax=0;resizeLast=0;collapsible=1;marginBottom=0;whiteSpace=wrap;html=1;" parent="1" vertex="1">
          <mxGeometry x="-590" y="1083" width="160" height="90" as="geometry" />
        </mxCell>
        <mxCell id="cjWLQR7C9Qx7QQM9_jkd-181" value="" style="line;strokeWidth=1;fillColor=none;align=left;verticalAlign=middle;spacingTop=-1;spacingLeft=3;spacingRight=3;rotatable=0;labelPosition=right;points=[];portConstraint=eastwest;strokeColor=inherit;" parent="cjWLQR7C9Qx7QQM9_jkd-179" vertex="1">
          <mxGeometry y="26" width="160" height="8" as="geometry" />
        </mxCell>
        <mxCell id="cjWLQR7C9Qx7QQM9_jkd-182" value="&lt;div&gt;+actualizarEstado():void&lt;/div&gt;&lt;div&gt;+new(id, username):void&lt;br&gt;&lt;/div&gt;" style="text;strokeColor=none;fillColor=none;align=left;verticalAlign=top;spacingLeft=4;spacingRight=4;overflow=hidden;rotatable=0;points=[[0,0.5],[1,0.5]];portConstraint=eastwest;whiteSpace=wrap;html=1;" parent="cjWLQR7C9Qx7QQM9_jkd-179" vertex="1">
          <mxGeometry y="34" width="160" height="56" as="geometry" />
        </mxCell>
        <mxCell id="dOL37KlRLSiU1scWst8k-1" value="Extends" style="endArrow=block;endSize=16;endFill=0;html=1;rounded=0;" parent="1" edge="1">
          <mxGeometry width="160" relative="1" as="geometry">
            <mxPoint x="-430" y="1120" as="sourcePoint" />
            <mxPoint x="-230" y="1120" as="targetPoint" />
          </mxGeometry>
        </mxCell>
        <mxCell id="dOL37KlRLSiU1scWst8k-3" value="EstadoUsuario" style="swimlane;fontStyle=3;align=center;verticalAlign=top;childLayout=stackLayout;horizontal=1;startSize=26;horizontalStack=0;resizeParent=1;resizeParentMax=0;resizeLast=0;collapsible=1;marginBottom=0;whiteSpace=wrap;html=1;fillColor=#dae8fc;strokeColor=#6c8ebf;" parent="1" vertex="1">
          <mxGeometry x="-210" y="1390" width="250" height="170" as="geometry" />
        </mxCell>
        <mxCell id="dOL37KlRLSiU1scWst8k-4" value="-user" style="text;strokeColor=none;fillColor=none;align=left;verticalAlign=top;spacingLeft=4;spacingRight=4;overflow=hidden;rotatable=0;points=[[0,0.5],[1,0.5]];portConstraint=eastwest;whiteSpace=wrap;html=1;" parent="dOL37KlRLSiU1scWst8k-3" vertex="1">
          <mxGeometry y="26" width="250" height="26" as="geometry" />
        </mxCell>
        <mxCell id="dOL37KlRLSiU1scWst8k-5" value="" style="line;strokeWidth=1;fillColor=none;align=left;verticalAlign=middle;spacingTop=-1;spacingLeft=3;spacingRight=3;rotatable=0;labelPosition=right;points=[];portConstraint=eastwest;strokeColor=inherit;" parent="dOL37KlRLSiU1scWst8k-3" vertex="1">
          <mxGeometry y="52" width="250" height="8" as="geometry" />
        </mxCell>
        <mxCell id="dOL37KlRLSiU1scWst8k-6" value="&lt;div&gt;+setState():void&lt;/div&gt;&lt;div&gt;+getUser():Usuario&lt;/div&gt;&lt;div&gt;+actualizarEstado(cantMuestrasEnviadas, cantMuestrasOpinadas):void&lt;/div&gt;&lt;div&gt;+esExperto():boolean&lt;br&gt;&lt;/div&gt;" style="text;strokeColor=none;fillColor=none;align=left;verticalAlign=top;spacingLeft=4;spacingRight=4;overflow=hidden;rotatable=0;points=[[0,0.5],[1,0.5]];portConstraint=eastwest;whiteSpace=wrap;html=1;" parent="dOL37KlRLSiU1scWst8k-3" vertex="1">
          <mxGeometry y="60" width="250" height="110" as="geometry" />
        </mxCell>
        <mxCell id="dOL37KlRLSiU1scWst8k-9" value="state" style="endArrow=block;endFill=1;html=1;edgeStyle=orthogonalEdgeStyle;align=left;verticalAlign=top;rounded=0;exitX=0.485;exitY=1.021;exitDx=0;exitDy=0;exitPerimeter=0;" parent="1" source="cjWLQR7C9Qx7QQM9_jkd-151" edge="1">
          <mxGeometry x="-0.6498" y="15" relative="1" as="geometry">
            <mxPoint x="-126" y="1290" as="sourcePoint" />
            <mxPoint x="-135" y="1390" as="targetPoint" />
            <Array as="points">
              <mxPoint x="-135" y="1283" />
            </Array>
            <mxPoint as="offset" />
          </mxGeometry>
        </mxCell>
        <mxCell id="dOL37KlRLSiU1scWst8k-10" value="1" style="edgeLabel;resizable=0;html=1;align=left;verticalAlign=bottom;" parent="dOL37KlRLSiU1scWst8k-9" connectable="0" vertex="1">
          <mxGeometry x="-1" relative="1" as="geometry">
            <mxPoint x="13" y="94" as="offset" />
          </mxGeometry>
        </mxCell>
        <mxCell id="dOL37KlRLSiU1scWst8k-11" value="EstadoMuesta" style="swimlane;fontStyle=3;align=center;verticalAlign=top;childLayout=stackLayout;horizontal=1;startSize=26;horizontalStack=0;resizeParent=1;resizeParentMax=0;resizeLast=0;collapsible=1;marginBottom=0;whiteSpace=wrap;html=1;fillColor=#dae8fc;strokeColor=#6c8ebf;" parent="1" vertex="1">
          <mxGeometry x="-165" y="346" width="160" height="78" as="geometry" />
        </mxCell>
        <mxCell id="dOL37KlRLSiU1scWst8k-12" value="&lt;div&gt;+esVerificada():boolean&lt;/div&gt;&lt;div&gt;+agregarOpinion():void&lt;br&gt;&lt;/div&gt;" style="text;strokeColor=none;fillColor=none;align=left;verticalAlign=top;spacingLeft=4;spacingRight=4;overflow=hidden;rotatable=0;points=[[0,0.5],[1,0.5]];portConstraint=eastwest;whiteSpace=wrap;html=1;" parent="dOL37KlRLSiU1scWst8k-11" vertex="1">
          <mxGeometry y="26" width="160" height="44" as="geometry" />
        </mxCell>
        <mxCell id="dOL37KlRLSiU1scWst8k-13" value="" style="line;strokeWidth=1;fillColor=none;align=left;verticalAlign=middle;spacingTop=-1;spacingLeft=3;spacingRight=3;rotatable=0;labelPosition=right;points=[];portConstraint=eastwest;strokeColor=inherit;" parent="dOL37KlRLSiU1scWst8k-11" vertex="1">
          <mxGeometry y="70" width="160" height="8" as="geometry" />
        </mxCell>
        <mxCell id="dOL37KlRLSiU1scWst8k-15" value="MuestraNoVerificada" style="swimlane;fontStyle=1;align=center;verticalAlign=top;childLayout=stackLayout;horizontal=1;startSize=26;horizontalStack=0;resizeParent=1;resizeParentMax=0;resizeLast=0;collapsible=1;marginBottom=0;whiteSpace=wrap;html=1;fillColor=#dae8fc;strokeColor=#6c8ebf;" parent="1" vertex="1">
          <mxGeometry x="-5" y="110" width="160" height="120" as="geometry" />
        </mxCell>
        <mxCell id="dOL37KlRLSiU1scWst8k-16" value="-muestra" style="text;strokeColor=none;fillColor=none;align=left;verticalAlign=top;spacingLeft=4;spacingRight=4;overflow=hidden;rotatable=0;points=[[0,0.5],[1,0.5]];portConstraint=eastwest;whiteSpace=wrap;html=1;" parent="dOL37KlRLSiU1scWst8k-15" vertex="1">
          <mxGeometry y="26" width="160" height="26" as="geometry" />
        </mxCell>
        <mxCell id="dOL37KlRLSiU1scWst8k-17" value="" style="line;strokeWidth=1;fillColor=none;align=left;verticalAlign=middle;spacingTop=-1;spacingLeft=3;spacingRight=3;rotatable=0;labelPosition=right;points=[];portConstraint=eastwest;strokeColor=inherit;" parent="dOL37KlRLSiU1scWst8k-15" vertex="1">
          <mxGeometry y="52" width="160" height="8" as="geometry" />
        </mxCell>
        <mxCell id="dOL37KlRLSiU1scWst8k-18" value="&lt;div&gt;+esVerificada():boolean&lt;/div&gt;&lt;div&gt;+agregarOpinion():void&lt;/div&gt;&lt;div&gt;+new(meustra):void&lt;br&gt;&lt;/div&gt;" style="text;strokeColor=none;fillColor=none;align=left;verticalAlign=top;spacingLeft=4;spacingRight=4;overflow=hidden;rotatable=0;points=[[0,0.5],[1,0.5]];portConstraint=eastwest;whiteSpace=wrap;html=1;" parent="dOL37KlRLSiU1scWst8k-15" vertex="1">
          <mxGeometry y="60" width="160" height="60" as="geometry" />
        </mxCell>
        <mxCell id="dOL37KlRLSiU1scWst8k-19" value="MuestraVerificada" style="swimlane;fontStyle=1;align=center;verticalAlign=top;childLayout=stackLayout;horizontal=1;startSize=26;horizontalStack=0;resizeParent=1;resizeParentMax=0;resizeLast=0;collapsible=1;marginBottom=0;whiteSpace=wrap;html=1;fillColor=#dae8fc;strokeColor=#6c8ebf;" parent="1" vertex="1">
          <mxGeometry x="-325" y="114" width="160" height="110" as="geometry" />
        </mxCell>
        <mxCell id="dOL37KlRLSiU1scWst8k-20" value="+ field: type" style="text;strokeColor=none;fillColor=none;align=left;verticalAlign=top;spacingLeft=4;spacingRight=4;overflow=hidden;rotatable=0;points=[[0,0.5],[1,0.5]];portConstraint=eastwest;whiteSpace=wrap;html=1;" parent="dOL37KlRLSiU1scWst8k-19" vertex="1">
          <mxGeometry y="26" width="160" height="26" as="geometry" />
        </mxCell>
        <mxCell id="dOL37KlRLSiU1scWst8k-21" value="" style="line;strokeWidth=1;fillColor=none;align=left;verticalAlign=middle;spacingTop=-1;spacingLeft=3;spacingRight=3;rotatable=0;labelPosition=right;points=[];portConstraint=eastwest;strokeColor=inherit;" parent="dOL37KlRLSiU1scWst8k-19" vertex="1">
          <mxGeometry y="52" width="160" height="8" as="geometry" />
        </mxCell>
        <mxCell id="dOL37KlRLSiU1scWst8k-22" value="&lt;div&gt;+esVerificada():boolean&lt;/div&gt;&lt;div&gt;+agregarOpinion():void&lt;br&gt;&lt;/div&gt;" style="text;strokeColor=none;fillColor=none;align=left;verticalAlign=top;spacingLeft=4;spacingRight=4;overflow=hidden;rotatable=0;points=[[0,0.5],[1,0.5]];portConstraint=eastwest;whiteSpace=wrap;html=1;" parent="dOL37KlRLSiU1scWst8k-19" vertex="1">
          <mxGeometry y="60" width="160" height="50" as="geometry" />
        </mxCell>
        <mxCell id="dOL37KlRLSiU1scWst8k-23" value="estado" style="endArrow=block;endFill=1;html=1;edgeStyle=orthogonalEdgeStyle;align=left;verticalAlign=top;rounded=0;exitX=0.5;exitY=0;exitDx=0;exitDy=0;" parent="1" edge="1">
          <mxGeometry x="-0.4029" y="50" relative="1" as="geometry">
            <mxPoint x="-82.44" y="585" as="sourcePoint" />
            <mxPoint x="-90" y="450" as="targetPoint" />
            <Array as="points">
              <mxPoint x="-90" y="585" />
            </Array>
            <mxPoint as="offset" />
          </mxGeometry>
        </mxCell>
        <mxCell id="dOL37KlRLSiU1scWst8k-24" value="1" style="edgeLabel;resizable=0;html=1;align=left;verticalAlign=bottom;" parent="dOL37KlRLSiU1scWst8k-23" connectable="0" vertex="1">
          <mxGeometry x="-1" relative="1" as="geometry">
            <mxPoint x="-38" y="-105" as="offset" />
          </mxGeometry>
        </mxCell>
        <mxCell id="dOL37KlRLSiU1scWst8k-25" value="Extends" style="endArrow=block;endSize=16;endFill=0;html=1;rounded=0;entryX=1;entryY=0;entryDx=0;entryDy=0;exitX=-0.009;exitY=0.925;exitDx=0;exitDy=0;exitPerimeter=0;" parent="1" source="dOL37KlRLSiU1scWst8k-18" target="dOL37KlRLSiU1scWst8k-11" edge="1">
          <mxGeometry width="160" relative="1" as="geometry">
            <mxPoint x="-110" y="440" as="sourcePoint" />
            <mxPoint x="50" y="440" as="targetPoint" />
          </mxGeometry>
        </mxCell>
        <mxCell id="dOL37KlRLSiU1scWst8k-26" value="Extends" style="endArrow=block;endSize=16;endFill=0;html=1;rounded=0;exitX=1;exitY=1;exitDx=0;exitDy=0;entryX=0;entryY=0;entryDx=0;entryDy=0;" parent="1" source="dOL37KlRLSiU1scWst8k-19" target="dOL37KlRLSiU1scWst8k-11" edge="1">
          <mxGeometry width="160" relative="1" as="geometry">
            <mxPoint x="-110" y="440" as="sourcePoint" />
            <mxPoint x="50" y="440" as="targetPoint" />
          </mxGeometry>
        </mxCell>
        <mxCell id="dOL37KlRLSiU1scWst8k-29" value="STATE" style="text;align=center;fontStyle=1;verticalAlign=middle;spacingLeft=3;spacingRight=3;strokeColor=none;rotatable=0;points=[[0,0.5],[1,0.5]];portConstraint=eastwest;html=1;" parent="1" vertex="1">
          <mxGeometry x="-170" y="320" width="80" height="26" as="geometry" />
        </mxCell>
        <mxCell id="dOL37KlRLSiU1scWst8k-30" value="CONCRETE_STATE" style="text;align=center;fontStyle=1;verticalAlign=middle;spacingLeft=3;spacingRight=3;strokeColor=none;rotatable=0;points=[[0,0.5],[1,0.5]];portConstraint=eastwest;html=1;" parent="1" vertex="1">
          <mxGeometry x="-360" y="1685" width="80" height="26" as="geometry" />
        </mxCell>
        <mxCell id="dOL37KlRLSiU1scWst8k-31" value="CONTEXT" style="text;align=center;fontStyle=1;verticalAlign=middle;spacingLeft=3;spacingRight=3;strokeColor=none;rotatable=0;points=[[0,0.5],[1,0.5]];portConstraint=eastwest;html=1;" parent="1" vertex="1">
          <mxGeometry x="-240" y="1057" width="80" height="26" as="geometry" />
        </mxCell>
        <mxCell id="dOL37KlRLSiU1scWst8k-32" value="STATE" style="text;align=center;fontStyle=1;verticalAlign=middle;spacingLeft=3;spacingRight=3;strokeColor=none;rotatable=0;points=[[0,0.5],[1,0.5]];portConstraint=eastwest;html=1;" parent="1" vertex="1">
          <mxGeometry x="-230" y="1364" width="80" height="26" as="geometry" />
        </mxCell>
        <mxCell id="dOL37KlRLSiU1scWst8k-33" value="CONCRETE_STATE" style="text;align=center;fontStyle=1;verticalAlign=middle;spacingLeft=3;spacingRight=3;strokeColor=none;rotatable=0;points=[[0,0.5],[1,0.5]];portConstraint=eastwest;html=1;" parent="1" vertex="1">
          <mxGeometry x="10" y="88" width="80" height="26" as="geometry" />
        </mxCell>
        <mxCell id="dOL37KlRLSiU1scWst8k-34" value="CONCRETE_STATE" style="text;align=center;fontStyle=1;verticalAlign=middle;spacingLeft=3;spacingRight=3;strokeColor=none;rotatable=0;points=[[0,0.5],[1,0.5]];portConstraint=eastwest;html=1;" parent="1" vertex="1">
          <mxGeometry x="110" y="1690" width="80" height="26" as="geometry" />
        </mxCell>
        <mxCell id="hyYSvlUBGf9WrgOdkNEH-1" value="usuarios" style="endArrow=block;endFill=1;html=1;edgeStyle=orthogonalEdgeStyle;align=left;verticalAlign=top;rounded=0;exitX=0.012;exitY=-0.179;exitDx=0;exitDy=0;exitPerimeter=0;entryX=1.005;entryY=0.136;entryDx=0;entryDy=0;entryPerimeter=0;" parent="1" source="cjWLQR7C9Qx7QQM9_jkd-145" target="cjWLQR7C9Qx7QQM9_jkd-146" edge="1">
          <mxGeometry x="-0.3904" y="-29" relative="1" as="geometry">
            <mxPoint x="10" y="1080" as="sourcePoint" />
            <mxPoint x="170" y="1080" as="targetPoint" />
            <mxPoint as="offset" />
          </mxGeometry>
        </mxCell>
        <mxCell id="hyYSvlUBGf9WrgOdkNEH-2" value="*" style="edgeLabel;resizable=0;html=1;align=left;verticalAlign=bottom;" parent="hyYSvlUBGf9WrgOdkNEH-1" connectable="0" vertex="1">
          <mxGeometry x="-1" relative="1" as="geometry">
            <mxPoint x="-204" y="-8" as="offset" />
          </mxGeometry>
        </mxCell>
        <mxCell id="hyYSvlUBGf9WrgOdkNEH-3" value="muestras" style="endArrow=block;endFill=1;html=1;edgeStyle=orthogonalEdgeStyle;align=left;verticalAlign=top;rounded=0;exitX=0;exitY=0;exitDx=0;exitDy=0;entryX=1.013;entryY=0.844;entryDx=0;entryDy=0;entryPerimeter=0;" parent="1" source="cjWLQR7C9Qx7QQM9_jkd-139" target="cjWLQR7C9Qx7QQM9_jkd-99" edge="1">
          <mxGeometry x="-0.8449" y="50" relative="1" as="geometry">
            <mxPoint x="10" y="940" as="sourcePoint" />
            <mxPoint x="170" y="940" as="targetPoint" />
            <mxPoint as="offset" />
          </mxGeometry>
        </mxCell>
        <mxCell id="hyYSvlUBGf9WrgOdkNEH-4" value="*" style="edgeLabel;resizable=0;html=1;align=left;verticalAlign=bottom;" parent="hyYSvlUBGf9WrgOdkNEH-3" connectable="0" vertex="1">
          <mxGeometry x="-1" relative="1" as="geometry">
            <mxPoint x="-180" y="-79" as="offset" />
          </mxGeometry>
        </mxCell>
        <mxCell id="hyYSvlUBGf9WrgOdkNEH-5" value="State" style="shape=module;align=left;spacingLeft=20;align=center;verticalAlign=top;whiteSpace=wrap;html=1;fillColor=#dae8fc;strokeColor=#6c8ebf;" parent="1" vertex="1">
          <mxGeometry x="40" y="1237" width="100" height="50" as="geometry" />
        </mxCell>
        <mxCell id="hyYSvlUBGf9WrgOdkNEH-7" value="State" style="shape=module;align=left;spacingLeft=20;align=center;verticalAlign=top;whiteSpace=wrap;html=1;fillColor=#dae8fc;strokeColor=#6c8ebf;" parent="1" vertex="1">
          <mxGeometry x="110" y="585" width="100" height="50" as="geometry" />
        </mxCell>
        <mxCell id="hyYSvlUBGf9WrgOdkNEH-8" value="CONTEXT" style="text;align=center;fontStyle=1;verticalAlign=middle;spacingLeft=3;spacingRight=3;strokeColor=none;rotatable=0;points=[[0,0.5],[1,0.5]];portConstraint=eastwest;html=1;" parent="1" vertex="1">
          <mxGeometry x="-50" y="560" width="80" height="26" as="geometry" />
        </mxCell>
        <mxCell id="hyYSvlUBGf9WrgOdkNEH-12" value="Extends" style="endArrow=block;endSize=16;endFill=0;html=1;rounded=0;exitX=0;exitY=0;exitDx=0;exitDy=0;" parent="1" source="cjWLQR7C9Qx7QQM9_jkd-165" edge="1">
          <mxGeometry width="160" relative="1" as="geometry">
            <mxPoint x="-170" y="1670" as="sourcePoint" />
            <mxPoint x="40" y="1560" as="targetPoint" />
          </mxGeometry>
        </mxCell>
        <mxCell id="hyYSvlUBGf9WrgOdkNEH-13" value="Extends" style="endArrow=block;endSize=16;endFill=0;html=1;rounded=0;entryX=-0.004;entryY=1.036;entryDx=0;entryDy=0;entryPerimeter=0;exitX=1;exitY=0;exitDx=0;exitDy=0;" parent="1" source="cjWLQR7C9Qx7QQM9_jkd-169" target="dOL37KlRLSiU1scWst8k-6" edge="1">
          <mxGeometry width="160" relative="1" as="geometry">
            <mxPoint x="-170" y="1670" as="sourcePoint" />
            <mxPoint x="-10" y="1670" as="targetPoint" />
          </mxGeometry>
        </mxCell>
        <mxCell id="dOL37KlRLSiU1scWst8k-28" value="CONCRETE_STATE" style="text;align=center;fontStyle=1;verticalAlign=middle;spacingLeft=3;spacingRight=3;strokeColor=none;rotatable=0;points=[[0,0.5],[1,0.5]];portConstraint=eastwest;html=1;" parent="1" vertex="1">
          <mxGeometry x="-350" y="90" width="160" height="26" as="geometry" />
        </mxCell>
        <mxCell id="hyYSvlUBGf9WrgOdkNEH-15" value="Opinion" style="swimlane;fontStyle=1;align=center;verticalAlign=top;childLayout=stackLayout;horizontal=1;startSize=26;horizontalStack=0;resizeParent=1;resizeParentMax=0;resizeLast=0;collapsible=1;marginBottom=0;whiteSpace=wrap;html=1;" parent="1" vertex="1">
          <mxGeometry x="-690" y="585" width="160" height="160" as="geometry" />
        </mxCell>
        <mxCell id="hyYSvlUBGf9WrgOdkNEH-16" value="&lt;div&gt;-opinion&lt;/div&gt;&lt;div&gt;-fechaPublicacion&lt;/div&gt;&lt;div&gt;-usuario&lt;br&gt;&lt;/div&gt;" style="text;strokeColor=none;fillColor=none;align=left;verticalAlign=top;spacingLeft=4;spacingRight=4;overflow=hidden;rotatable=0;points=[[0,0.5],[1,0.5]];portConstraint=eastwest;whiteSpace=wrap;html=1;" parent="hyYSvlUBGf9WrgOdkNEH-15" vertex="1">
          <mxGeometry y="26" width="160" height="54" as="geometry" />
        </mxCell>
        <mxCell id="hyYSvlUBGf9WrgOdkNEH-17" value="" style="line;strokeWidth=1;fillColor=none;align=left;verticalAlign=middle;spacingTop=-1;spacingLeft=3;spacingRight=3;rotatable=0;labelPosition=right;points=[];portConstraint=eastwest;strokeColor=inherit;" parent="hyYSvlUBGf9WrgOdkNEH-15" vertex="1">
          <mxGeometry y="80" width="160" height="8" as="geometry" />
        </mxCell>
        <mxCell id="hyYSvlUBGf9WrgOdkNEH-18" value="&lt;div&gt;+getFechaPublicacion():LocalDate&lt;/div&gt;&lt;div&gt;+getOpinion():OpinionImagen&lt;/div&gt;&lt;div&gt;+getUsuario():Usuario()&lt;/div&gt;" style="text;strokeColor=none;fillColor=none;align=left;verticalAlign=top;spacingLeft=4;spacingRight=4;overflow=hidden;rotatable=0;points=[[0,0.5],[1,0.5]];portConstraint=eastwest;whiteSpace=wrap;html=1;" parent="hyYSvlUBGf9WrgOdkNEH-15" vertex="1">
          <mxGeometry y="88" width="160" height="72" as="geometry" />
        </mxCell>
        <mxCell id="hyYSvlUBGf9WrgOdkNEH-21" value="opiniones" style="endArrow=block;endFill=1;html=1;edgeStyle=orthogonalEdgeStyle;align=left;verticalAlign=top;rounded=0;exitX=-0.01;exitY=0.056;exitDx=0;exitDy=0;exitPerimeter=0;entryX=1.021;entryY=0.163;entryDx=0;entryDy=0;entryPerimeter=0;" parent="1" target="hyYSvlUBGf9WrgOdkNEH-16" edge="1">
          <mxGeometry x="-0.641" y="15" relative="1" as="geometry">
            <mxPoint x="-182.07999999999993" y="610.4199999999998" as="sourcePoint" />
            <mxPoint x="-500" y="620" as="targetPoint" />
            <Array as="points">
              <mxPoint x="-182" y="615" />
            </Array>
            <mxPoint as="offset" />
          </mxGeometry>
        </mxCell>
        <mxCell id="hyYSvlUBGf9WrgOdkNEH-22" value="*" style="edgeLabel;resizable=0;html=1;align=left;verticalAlign=bottom;" parent="hyYSvlUBGf9WrgOdkNEH-21" connectable="0" vertex="1">
          <mxGeometry x="-1" relative="1" as="geometry">
            <mxPoint x="-328" y="8" as="offset" />
          </mxGeometry>
        </mxCell>
      </root>
    </mxGraphModel>
  </diagram>
</mxfile>
